<svg width="200" height="200" viewBox="0 0 200 200" fill="none" xmlns="http://www.w3.org/2000/svg">
<rect width="200" height="200" fill="black"/>
<path d="M167.438 47.1875C168.646 47.1875 169.812 47.3958 170.938 47.8125C172.104 48.1875 173.125 48.75 174 49.5C174.917 50.2083 175.646 51.1042 176.188 52.1875C176.729 53.2292 177 54.4167 177 55.75C177 58.3333 176.167 61.2708 174.5 64.5625C172.833 67.8542 170.667 71.7083 168 76.125C165.125 80.8333 162.417 85.5417 159.875 90.25C157.333 94.9167 154.958 99.4375 152.75 103.812C150.583 108.146 148.583 112.25 146.75 116.125C144.958 119.958 143.396 123.396 142.062 126.438C143.729 126.646 145.396 126.812 147.062 126.938C148.729 127.062 150.229 127.104 151.562 127.062L151.688 130.312C151.396 130.312 150.292 130.312 148.375 130.312C146.5 130.271 143.938 130.021 140.688 129.562C139.396 132.562 138.396 134.896 137.688 136.562C137.021 138.229 136.688 139.104 136.688 139.188L129.25 136.875L133 128.312C130.208 127.688 127.271 126.958 124.188 126.125C121.104 125.292 117.958 124.354 114.75 123.312C111.583 122.229 108.417 121.021 105.25 119.688C102.083 118.354 99.0417 116.896 96.125 115.312C93.4167 118.438 90.4792 121.521 87.3125 124.562C84.1458 127.562 80.75 130.271 77.125 132.688C73.5 135.062 69.6458 136.979 65.5625 138.438C61.5208 139.938 57.25 140.688 52.75 140.688C48.75 140.688 44.75 140.083 40.75 138.875C36.7917 137.708 33.2292 136 30.0625 133.75C26.9375 131.458 24.3958 128.688 22.4375 125.438C20.4792 122.146 19.5 118.417 19.5 114.25C19.5 110.958 20.125 108.062 21.375 105.562C22.5833 103.062 24.25 100.979 26.375 99.3125C28.5417 97.6458 31.0625 96.3958 33.9375 95.5625C36.8542 94.6875 39.9792 94.25 43.3125 94.25C45.8542 94.25 48.4792 94.5 51.1875 95C53.9375 95.5 56.6042 96.3333 59.1875 97.5C61.7708 98.6667 64.2083 100.208 66.5 102.125C68.7917 104.042 70.75 106.417 72.375 109.25L69.625 111C69.5833 110.917 69.3333 110.604 68.875 110.062C68.4583 109.479 67.8125 108.792 66.9375 108C66.1042 107.167 65.0208 106.292 63.6875 105.375C62.3542 104.458 60.75 103.625 58.875 102.875C57.0417 102.083 54.8958 101.438 52.4375 100.938C50.0208 100.396 47.2708 100.125 44.1875 100.125C41.0625 100.125 38.3333 100.667 36 101.75C33.6667 102.792 31.7083 104.146 30.125 105.812C28.5833 107.438 27.4167 109.271 26.625 111.312C25.875 113.354 25.5 115.333 25.5 117.25C25.5 119.5 25.8958 121.562 26.6875 123.438C27.4792 125.271 28.5417 126.938 29.875 128.438C31.25 129.938 32.8333 131.25 34.625 132.375C36.4583 133.458 38.375 134.375 40.375 135.125C42.4167 135.875 44.4792 136.438 46.5625 136.812C48.6875 137.188 50.75 137.375 52.75 137.375C56.875 137.375 60.8333 136.708 64.625 135.375C68.4167 134 72 132.208 75.375 130C78.75 127.75 81.9167 125.208 84.875 122.375C87.875 119.542 90.6458 116.646 93.1875 113.688C90.3542 111.979 87.7292 110.146 85.3125 108.188C82.9375 106.188 80.875 104.062 79.125 101.812C77.375 99.5208 76 97.0833 75 94.5C74.0417 91.875 73.5625 89.1042 73.5625 86.1875C73.5625 83.7708 74 81.5 74.875 79.375C75.7917 77.25 77.0208 75.3958 78.5625 73.8125C80.1458 72.1875 82 70.9167 84.125 70C86.2917 69.0417 88.6042 68.5625 91.0625 68.5625C93.8125 68.5625 96.4167 69 98.875 69.875C101.333 70.7083 103.667 71.875 105.875 73.375C108.083 74.8333 110.146 76.5833 112.062 78.625C114.021 80.6667 115.854 82.875 117.562 85.25C122.229 80.0417 126.875 75.1458 131.5 70.5625C136.167 65.9375 140.646 61.8958 144.938 58.4375C149.229 54.9792 153.271 52.25 157.062 50.25C160.896 48.2083 164.354 47.1875 167.438 47.1875ZM119.5 88.125C121.458 91.125 123.25 94.2292 124.875 97.4375C126.5 100.646 127.958 103.792 129.25 106.875C130.583 109.958 131.75 112.896 132.75 115.688C133.792 118.438 134.688 120.875 135.438 123C140.312 112.375 145.521 101.958 151.062 91.75C156.604 81.5417 162.833 71.4583 169.75 61.5C170.875 59.8333 171.667 58.4583 172.125 57.375C172.625 56.25 172.875 55.2917 172.875 54.5C172.875 53.1667 172.312 52.1667 171.188 51.5C170.062 50.7917 168.771 50.4375 167.312 50.4375C162.688 50.4375 156.375 53.6042 148.375 59.9375C140.417 66.2292 130.792 75.625 119.5 88.125ZM79.25 89.1875C79.25 91.3958 79.6667 93.5 80.5 95.5C81.3333 97.4583 82.4792 99.3542 83.9375 101.188C85.3958 102.979 87.125 104.688 89.125 106.312C91.125 107.896 93.2917 109.396 95.625 110.812C98.75 107.021 101.938 103.208 105.188 99.375C108.438 95.5417 111.729 91.75 115.062 88C113.604 86.0833 112.083 84.3125 110.5 82.6875C108.958 81.0208 107.333 79.5833 105.625 78.375C103.917 77.1667 102.146 76.2292 100.312 75.5625C98.4792 74.8958 96.5833 74.5625 94.625 74.5625C92.4167 74.5625 90.375 74.9375 88.5 75.6875C86.625 76.4375 85 77.4792 83.625 78.8125C82.25 80.1042 81.1667 81.6458 80.375 83.4375C79.625 85.1875 79.25 87.1042 79.25 89.1875ZM132.688 124.812C132.104 122.938 131.312 120.667 130.312 118C129.354 115.333 128.208 112.479 126.875 109.438C125.583 106.354 124.104 103.208 122.438 100C120.812 96.7917 119.021 93.7292 117.062 90.8125C114.188 94.0625 111.208 97.4792 108.125 101.062C105.042 104.646 101.833 108.458 98.5 112.5C101.417 114.125 104.458 115.604 107.625 116.938C110.833 118.229 113.938 119.396 116.938 120.438C119.979 121.438 122.854 122.312 125.562 123.062C128.312 123.812 130.688 124.396 132.688 124.812Z" fill="white"/>
</svg>
